<?xml version="1.0" ?><!DOCTYPE svg  PUBLIC '-//W3C//DTD SVG 1.1//EN'  'http://www.w3.org/Graphics/SVG/1.1/DTD/svg11.dtd'><svg enable-background="new 0 0 128 128" id="Layer_1" version="1.1" viewBox="0 0 128 128" xml:space="preserve" xmlns="http://www.w3.org/2000/svg" xmlns:xlink="http://www.w3.org/1999/xlink"><path d="M99.91,45.5c-0.48,0-0.94,0.03-1.41,0.07c0.02-0.48,0.04-0.96,0.04-1.44c0-18.43-13.63-33.67-31.37-36.19  l-0.05-0.37h-5.15c-17.7,0-32.46,12.58-35.84,29.29c-11.82,0.34-21.3,10.16-21.3,22.06C4.84,71.03,14.66,81,26.78,81  c0,0,72.67,0,73.14,0c9.72,0,17.6-8.03,17.6-17.75C117.51,53.53,109.63,45.5,99.91,45.5z" fill="#00AEEF"/><path d="M105.07,45.5c-0.48,0-0.94,0.03-1.41,0.07c0.02-0.48,0.04-0.96,0.04-1.44c0-20.2-16.37-36.57-36.57-36.57  c-17.7,0-32.46,12.58-35.84,29.29c-11.82,0.34-21.3,10.16-21.3,22.06C9.99,71.03,19.81,81,31.93,81c0,0,72.67,0,73.14,0  c9.72,0,17.6-8.03,17.6-17.75C122.66,53.53,114.79,45.5,105.07,45.5z" fill="#00C0F3"/><path d="M90,56V46h-5.69c-0.43-1.56-1.04-3.04-1.83-4.42l4.02-4.02l-7.07-7.07l-4.02,4.02  c-1.37-0.79-2.86-1.4-4.42-1.83V27H61v5.69c-1.56,0.43-3.04,1.04-4.42,1.83l-4.02-4.02l-7.07,7.07l4.02,4.02  c-0.79,1.37-1.4,2.86-1.83,4.42H42v10h5.69c0.43,1.56,1.04,3.04,1.83,4.42l-4.02,4.02l7.07,7.07l4.02-4.02  c1.37,0.79,2.86,1.4,4.42,1.83V75h10v-5.69c1.56-0.43,3.04-1.04,4.42-1.83l4.02,4.02l7.07-7.07l-4.02-4.02  c0.79-1.37,1.4-2.86,1.83-4.42H90z M66,61.67c-5.89,0-10.67-4.78-10.67-10.67S60.11,40.33,66,40.33S76.67,45.11,76.67,51  S71.89,61.67,66,61.67z" fill="#00AEEF"/><path d="M94,66c0,1.1-0.9,2-2,2H33c-1.1,0-2-0.9-2-2V54c0-1.1,0.9-2,2-2h59c1.1,0,2,0.9,2,2V66z"/><line fill="none" stroke="#EC008C" stroke-miterlimit="10" stroke-width="4" x1="66" x2="66" y1="60" y2="113"/><path d="M98,66c0,1.1-0.9,2-2,2H37c-1.1,0-2-0.9-2-2V54c0-1.1,0.9-2,2-2h59c1.1,0,2,0.9,2,2V66z" fill="#414042"/><path d="M94,86c0,1.1-0.9,2-2,2H33c-1.1,0-2-0.9-2-2V74c0-1.1,0.9-2,2-2h59c1.1,0,2,0.9,2,2V86z"/><path d="M98,86c0,1.1-0.9,2-2,2H37c-1.1,0-2-0.9-2-2V74c0-1.1,0.9-2,2-2h59c1.1,0,2,0.9,2,2V86z" fill="#414042"/><path d="M94,106c0,1.1-0.9,2-2,2H33c-1.1,0-2-0.9-2-2V94c0-1.1,0.9-2,2-2h59c1.1,0,2,0.9,2,2V106z"/><path d="M98,106c0,1.1-0.9,2-2,2H37c-1.1,0-2-0.9-2-2V94c0-1.1,0.9-2,2-2h59c1.1,0,2,0.9,2,2V106z" fill="#414042"/><line fill="none" stroke="#EC008C" stroke-linecap="square" stroke-miterlimit="10" stroke-width="4" x1="71" x2="96" y1="118" y2="118"/><line fill="none" stroke="#EC008C" stroke-linecap="square" stroke-miterlimit="10" stroke-width="4" x1="35" x2="62" y1="118" y2="118"/><circle cx="66.26" cy="117.06" fill="none" r="4.19" stroke="#EC008C" stroke-miterlimit="10" stroke-width="4"/><circle cx="43.3" cy="59.54" fill="#FFF200" r="2.23"/><circle cx="51.12" cy="59.54" fill="#EC008C" r="2.23"/><circle cx="58.94" cy="59.54" fill="#E6E7E8" r="2.23"/><circle cx="43.3" cy="79.65" fill="#EC008C" r="2.23"/><circle cx="51.12" cy="79.65" fill="#00C0F3" r="2.23"/><circle cx="58.94" cy="79.65" fill="#E6E7E8" r="2.23"/><circle cx="43.3" cy="99.75" fill="#00AEEF" r="2.23"/><circle cx="51.12" cy="99.75" fill="#EC008C" r="2.23"/><circle cx="58.94" cy="99.75" fill="#E6E7E8" r="2.23"/><rect fill="#D1D3D4" height="4" width="14" x="76" y="58"/><rect fill="#D1D3D4" height="4" width="14" x="76" y="78"/><rect fill="#D1D3D4" height="4" width="14" x="76" y="98"/></svg>